<?xml version="1.0" encoding="utf-8"?>
<!-- Generator: Adobe Illustrator 15.0.2, SVG Export Plug-In . SVG Version: 6.00 Build 0)  -->
<!DOCTYPE svg PUBLIC "-//W3C//DTD SVG 1.1//EN" "http://www.w3.org/Graphics/SVG/1.1/DTD/svg11.dtd">
<svg version="1.1" id="Layer_1" xmlns="http://www.w3.org/2000/svg" xmlns:xlink="http://www.w3.org/1999/xlink" x="0px" y="0px"
	 width="512px" height="597.333px" viewBox="0 0 512 597.333" enable-background="new 0 0 512 597.333" xml:space="preserve">
<path d="M256,597.333c141.361,0,256-114.639,256-256C370.639,341.333,256,455.973,256,597.333z M74.098,263.111
	c0,39.25,31.86,71.111,71.11,71.111c14.931,0,28.875-4.695,40.25-12.515l-0.569,5.403c0,39.25,31.861,71.111,71.111,71.111
	s71.111-31.861,71.111-71.111l-0.569-5.403c11.514,7.959,25.319,12.515,40.25,12.515c39.25,0,71.11-31.861,71.11-71.111
	c0-28.306-16.639-52.625-40.68-64c23.889-11.375,40.68-35.694,40.68-64c0-39.25-31.86-71.111-71.11-71.111
	c-14.931,0-28.875,4.694-40.25,12.514l0.569-5.402C327.111,31.861,295.25,0,256,0s-71.111,31.861-71.111,71.111l0.569,5.402
	C173.938,68.549,160.139,64,145.208,64c-39.25,0-71.11,31.861-71.11,71.111c0,28.306,16.639,52.625,40.673,64
	C90.736,210.486,74.098,234.806,74.098,263.111z M256,128c39.25,0,71.111,31.861,71.111,71.111S295.25,270.223,256,270.223
	s-71.111-31.861-71.111-71.111S216.75,128,256,128z M0,341.333c0,141.361,114.632,256,256,256
	C256,455.973,141.368,341.333,0,341.333z"/>
</svg>
